<?xml version="1.0" standalone="no"?>
<!DOCTYPE svg PUBLIC "-//W3C//DTD SVG 20010904//EN"
 "http://www.w3.org/TR/2001/REC-SVG-20010904/DTD/svg10.dtd">
<svg version="1.0" xmlns="http://www.w3.org/2000/svg"
 width="316.000000pt" height="428.000000pt" viewBox="0 0 316.000000 428.000000"
 preserveAspectRatio="xMidYMid meet">
<metadata>
Created by potrace 1.16, written by Peter Selinger 2001-2019
</metadata>
<g transform="translate(0.000000,428.000000) scale(0.100000,-0.100000)"
fill="#000000" stroke="none">
<path d="M1856 3468 c-13 -18 -16 -55 -16 -194 l0 -172 60 -4 60 -3 0 181 c0
163 -2 183 -18 197 -26 24 -68 21 -86 -5z"/>
<path d="M1115 3315 c-35 -34 -35 -106 0 -140 33 -34 93 -34 133 0 l30 25 236
0 236 0 0 45 0 45 -236 0 -236 0 -30 25 c-40 34 -100 34 -133 0z"/>
<path d="M1127 3006 c10 -131 59 -235 157 -331 91 -90 141 -116 311 -160 187
-49 273 -101 331 -201 l25 -42 57 5 c31 3 59 7 61 9 12 10 -63 126 -114 178
-79 80 -169 126 -315 161 -144 35 -236 81 -290 145 -51 61 -89 144 -103 224
l-11 63 -56 0 -56 1 3 -52z"/>
<path d="M1813 2980 l-28 -30 -217 0 c-120 0 -218 -2 -218 -5 0 -2 8 -20 17
-40 l17 -35 204 0 c203 0 204 0 234 -25 42 -35 91 -34 129 4 63 64 23 161 -67
161 -34 0 -48 -6 -71 -30z"/>
<path d="M1200 2526 c-61 -45 -137 -130 -166 -188 -13 -26 -24 -49 -24 -51 0
-3 19 -7 43 -10 23 -2 49 -8 57 -11 11 -4 21 5 35 31 30 56 103 125 167 158
32 17 58 32 57 35 -1 8 -100 70 -113 70 -6 0 -31 -15 -56 -34z"/>
<path d="M972 2165 c-36 -30 -47 -66 -32 -110 23 -70 115 -89 171 -35 l31 29
393 1 394 0 34 -30 c64 -56 158 -31 173 46 19 101 -91 163 -169 94 l-35 -30
-397 0 -397 0 -35 30 c-43 38 -90 40 -131 5z"/>
<path d="M1090 1904 c-19 -7 -43 -13 -52 -13 -24 -1 -23 -7 12 -66 40 -69 132
-158 200 -194 31 -17 116 -46 189 -66 163 -43 228 -74 287 -137 47 -50 96
-146 108 -209 l6 -35 61 -2 60 -2 -7 38 c-23 131 -101 267 -196 339 -77 59
-125 81 -256 114 -64 17 -130 35 -147 41 -62 24 -139 83 -182 142 -25 34 -46
61 -46 62 -1 0 -18 -5 -37 -12z"/>
<path d="M1922 1868 c-41 -60 -105 -116 -163 -142 l-49 -23 56 -38 c49 -34 57
-37 81 -26 65 30 148 118 201 212 l21 37 -46 7 c-25 4 -51 9 -58 12 -7 2 -26
-15 -43 -39z"/>
<path d="M1135 1408 c-42 -24 -60 -78 -40 -124 25 -59 100 -74 153 -29 l30 25
221 0 c122 0 221 3 221 6 0 3 -14 24 -31 45 l-31 39 -190 0 c-188 0 -190 0
-220 25 -32 27 -79 32 -113 13z"/>
<path d="M1124 958 c1 -165 3 -181 21 -194 25 -19 60 -18 79 2 13 13 16 45 16
193 l0 178 -58 1 -59 1 1 -181z"/>
<path d="M1815 1060 l-29 -30 -228 0 -228 0 0 -40 0 -40 233 0 232 0 24 -25
c39 -42 127 -29 150 22 32 71 -10 143 -84 143 -33 0 -47 -6 -70 -30z"/>
</g>
</svg>
